<svg width="41" height="40" viewBox="0 0 41 40" fill="none" xmlns="http://www.w3.org/2000/svg">
<rect x="0.549805" width="39.7251" height="39.7251" rx="7.44846" fill="#DEE9F3"/>
<path d="M15.3523 12.8623C15.352 13.3928 15.1411 13.9014 14.7658 14.2762C14.3905 14.6511 13.8817 14.8616 13.3513 14.8613C12.8209 14.8611 12.3123 14.6501 11.9374 14.2748C11.5625 13.8996 11.352 13.3908 11.3523 12.8603C11.3526 12.3299 11.5635 11.8213 11.9388 11.4464C12.314 11.0715 12.8229 10.8611 13.3533 10.8613C13.8837 10.8616 14.3923 11.0726 14.7672 11.4478C15.1421 11.8231 15.3526 12.3319 15.3523 12.8623ZM15.4123 16.3423H11.4123V28.8623H15.4123V16.3423ZM21.7323 16.3423H17.7523V28.8623H21.6923V22.2923C21.6923 18.6323 26.4623 18.2923 26.4623 22.2923V28.8623H30.4123V20.9323C30.4123 14.7623 23.3523 14.9923 21.6923 18.0223L21.7323 16.3423Z" fill="black"/>
</svg>
