<svg width="39" height="39" viewBox="0 0 39 39" fill="currentColor" xmlns="http://www.w3.org/2000/svg">
<path fill-rule="evenodd" clip-rule="evenodd" d="M19.25 34.5625C27.6448 34.5625 34.4501 27.7573 34.4501 19.3625C34.4501 10.9678 27.6448 4.16252 19.25 4.16252C10.8553 4.16252 4.05005 10.9678 4.05005 19.3625C4.05005 27.7573 10.8553 34.5625 19.25 34.5625ZM13.55 17.4625C14.5994 17.4625 15.45 16.6119 15.45 15.5625C15.45 14.5132 14.5994 13.6625 13.55 13.6625C12.5007 13.6625 11.65 14.5132 11.65 15.5625C11.65 16.6119 12.5007 17.4625 13.55 17.4625ZM26.85 15.5625C26.85 16.6119 25.9994 17.4625 24.9501 17.4625C23.9007 17.4625 23.05 16.6119 23.05 15.5625C23.05 14.5132 23.9007 13.6625 24.9501 13.6625C25.9994 13.6625 26.85 14.5132 26.85 15.5625ZM25.9676 26.0799C26.7096 25.3379 26.7096 24.1348 25.9676 23.3929C25.2256 22.6509 24.0226 22.6509 23.2806 23.3929C21.0546 25.6188 17.4455 25.6188 15.2195 23.3929C14.4775 22.6509 13.2745 22.6509 12.5325 23.3929C11.7905 24.1348 11.7905 25.3379 12.5325 26.0799C16.2425 29.7898 22.2576 29.7898 25.9676 26.0799Z"/>
</svg>
