<svg width="136" height="47" viewBox="0 0 136 47" fill="none" xmlns="http://www.w3.org/2000/svg">
<rect x="22.6053" y="0.894653" width="31.9688" height="31.9688" rx="15.9844" transform="rotate(45 22.6053 0.894653)" fill="#6D3FFF"/>
<rect x="35.1562" y="10.8508" width="18.9495" height="18.9495" rx="9.47473" transform="rotate(45 35.1562 10.8508)" fill="#082539" stroke="white" stroke-width="2.66407"/>
<path d="M60.4845 34V13.1859H68.2897C69.8887 13.1859 71.2303 13.4841 72.3143 14.0803C73.4052 14.6765 74.2284 15.4964 74.784 16.5398C75.3463 17.5764 75.6275 18.7553 75.6275 20.0765C75.6275 21.4113 75.3463 22.597 74.784 23.6336C74.2216 24.6703 73.3916 25.4867 72.294 26.0829C71.1964 26.6724 69.8447 26.9671 68.2389 26.9671H63.0659V23.8674H67.7308C68.6658 23.8674 69.4314 23.7048 70.0276 23.3795C70.6239 23.0543 71.0643 22.6071 71.3488 22.038C71.6402 21.4689 71.7859 20.815 71.7859 20.0765C71.7859 19.338 71.6402 18.6876 71.3488 18.1252C71.0643 17.5629 70.6205 17.1258 70.0175 16.8142C69.4212 16.4957 68.6522 16.3365 67.7104 16.3365H64.255V34H60.4845ZM82.419 13.1859V34H78.74V13.1859H82.419ZM96.1519 27.4346V18.3895H99.831V34H96.2637V31.2255H96.1011C95.7488 32.0995 95.1695 32.8143 94.3632 33.3699C93.5637 33.9255 92.5779 34.2033 91.4058 34.2033C90.3827 34.2033 89.4781 33.9763 88.6922 33.5223C87.913 33.0616 87.3032 32.3942 86.8628 31.5202C86.4224 30.6394 86.2022 29.5757 86.2022 28.329V18.3895H89.8813V27.7598C89.8813 28.7491 90.1523 29.535 90.6943 30.1177C91.2364 30.7004 91.9478 30.9917 92.8286 30.9917C93.3706 30.9917 93.8957 30.8596 94.4039 30.5954C94.912 30.3311 95.3287 29.9381 95.6539 29.4164C95.9859 28.888 96.1519 28.2273 96.1519 27.4346ZM110.423 34.3049C108.865 34.3049 107.527 33.9627 106.409 33.2784C105.298 32.5941 104.441 31.6489 103.838 30.4429C103.242 29.2301 102.943 27.8344 102.943 26.2557C102.943 24.6703 103.248 23.2711 103.858 22.0583C104.468 20.8388 105.328 19.8902 106.44 19.2127C107.557 18.5283 108.879 18.1862 110.403 18.1862C111.67 18.1862 112.791 18.4199 113.767 18.8874C114.75 19.3482 115.532 20.002 116.115 20.8489C116.698 21.6891 117.03 22.6715 117.111 23.7962H113.594C113.452 23.0442 113.113 22.4174 112.578 21.9161C112.05 21.4079 111.342 21.1538 110.454 21.1538C109.702 21.1538 109.041 21.3571 108.472 21.7636C107.903 22.1634 107.459 22.7393 107.141 23.4913C106.829 24.2434 106.673 25.1445 106.673 26.1947C106.673 27.2585 106.829 28.1731 107.141 28.9388C107.452 29.6976 107.889 30.2837 108.452 30.697C109.021 31.1035 109.688 31.3068 110.454 31.3068C110.996 31.3068 111.48 31.2051 111.907 31.0019C112.341 30.7918 112.703 30.4903 112.995 30.0974C113.286 29.7044 113.486 29.2267 113.594 28.6644H117.111C117.023 29.7688 116.698 30.7478 116.135 31.6015C115.573 32.4484 114.807 33.1124 113.838 33.5935C112.869 34.0678 111.731 34.3049 110.423 34.3049ZM123.486 29.1014L123.475 24.6601H124.065L129.675 18.3895H133.974L127.073 26.0728H126.311L123.486 29.1014ZM120.132 34V13.1859H123.811V34H120.132ZM129.929 34L124.847 26.896L127.327 24.3044L134.33 34H129.929Z" fill="black"/>
</svg>
