<svg width="39" height="39" viewBox="0 0 39 39" fill="none" xmlns="http://www.w3.org/2000/svg">
<path d="M5.5 8.00425C5.5 6.25535 6.91777 4.83759 8.66667 4.83759H13.8588C14.5403 4.83759 15.1454 5.27368 15.3609 5.92022L17.7324 13.0348C17.9816 13.7823 17.6432 14.5993 16.9384 14.9517L13.3644 16.7387C15.1096 20.6095 18.2281 23.7279 22.0989 25.4732L23.8859 21.8992C24.2383 21.1944 25.0552 20.856 25.8027 21.1052L32.9174 23.4767C33.5639 23.6922 34 24.2973 34 24.9788V30.1709C34 31.9198 32.5822 33.3376 30.8333 33.3376H29.25C16.1332 33.3376 5.5 22.7043 5.5 9.58759V8.00425Z" stroke="#111827" stroke-width="2" stroke-linecap="round" stroke-linejoin="round"/>
</svg>
