<svg width="41" height="40" viewBox="0 0 41 40" fill="none" xmlns="http://www.w3.org/2000/svg">
<rect x="0.824707" width="39.7251" height="39.7251" rx="7.44846" fill="#DEE9F3"/>
<path d="M31.1473 13.8623C30.3773 14.2123 29.5473 14.4423 28.6873 14.5523C29.5673 14.0223 30.2473 13.1823 30.5673 12.1723C29.7373 12.6723 28.8173 13.0223 27.8473 13.2223C27.0573 12.3623 25.9473 11.8623 24.6873 11.8623C22.3373 11.8623 20.4173 13.7823 20.4173 16.1523C20.4173 16.4923 20.4573 16.8223 20.5273 17.1323C16.9673 16.9523 13.7973 15.2423 11.6873 12.6523C11.3173 13.2823 11.1073 14.0223 11.1073 14.8023C11.1073 16.2923 11.8573 17.6123 13.0173 18.3623C12.3073 18.3623 11.6473 18.1623 11.0673 17.8623V17.8923C11.0673 19.9723 12.5473 21.7123 14.5073 22.1023C13.878 22.2745 13.2174 22.2985 12.5773 22.1723C12.8489 23.0248 13.3808 23.7707 14.0983 24.3052C14.8158 24.8398 15.6827 25.136 16.5773 25.1523C15.0609 26.3527 13.1813 27.0016 11.2473 26.9923C10.9073 26.9923 10.5673 26.9723 10.2273 26.9323C12.1273 28.1523 14.3873 28.8623 16.8073 28.8623C24.6873 28.8623 29.0173 22.3223 29.0173 16.6523C29.0173 16.4623 29.0173 16.2823 29.0073 16.0923C29.8473 15.4923 30.5673 14.7323 31.1473 13.8623Z" fill="black"/>
</svg>
